<svg width="156" height="44" viewBox="0 0 156 44" fill="none" xmlns="http://www.w3.org/2000/svg">
<path d="M57.571 39.7224V26.2941C57.571 22.9881 55.8731 19.987 52.5271 19.987C49.2311 19.987 47.2836 22.9881 47.2836 26.2941V39.7224H41.191V14.5954H46.8342L47.2836 17.6473C48.582 15.1042 51.4285 14.1885 53.7758 14.1885C56.7223 14.1885 59.6686 15.4092 61.0669 18.8681C63.2643 15.3074 66.1109 14.2903 69.307 14.2903C76.2985 14.2903 79.7443 18.6646 79.7443 26.1924V39.7224H73.6517V26.1924C73.6517 22.8863 72.3032 20.0891 69.0073 20.0891C65.7113 20.0891 63.6638 22.9881 63.6638 26.2941V39.7224H57.571Z" fill="#253746"/>
<path d="M90.2094 27.0061C90.2094 31.7875 93.4555 34.6356 97.5006 34.6356C107.089 34.6356 107.089 19.4273 97.5006 19.4273C93.4555 19.4273 90.2094 22.2249 90.2094 27.0061ZM104.991 14.5505H110.834V39.7336H105.091L104.792 35.9074C103.393 38.8576 99.5481 40.2816 96.8015 40.3327C89.5104 40.3835 84.1168 35.8057 84.1168 27.0061C84.1168 18.3592 89.76 13.8322 96.9514 13.8832C100.247 13.8832 103.393 15.4599 104.792 17.9522L104.991 14.5505Z" fill="#253746"/>
<path d="M116.408 14.5527V39.7306H122.5V14.5527H116.408ZM123.05 7.29052C123.05 12.1225 115.858 12.1225 115.858 7.29052C115.858 2.4585 123.05 2.4585 123.05 7.29052Z" fill="#253746"/>
<path d="M134.547 27.1606C134.547 31.6875 137.843 34.5358 141.688 34.5358C145.583 34.5358 148.68 31.5349 148.68 27.1606C148.68 22.6337 145.583 19.836 141.688 19.836C137.843 19.836 134.547 22.7863 134.547 27.1606ZM134.147 4.14404V18.0559C135.596 15.4617 139.641 14.0377 142.238 14.0377C149.429 14.0377 154.772 18.5136 154.772 27.1606C154.772 35.4006 149.329 40.2837 142.088 40.2837C139.091 40.2837 136.045 39.2664 134.147 36.2653L133.748 39.7241H128.055V4.14404H134.147Z" fill="#253746"/>
<path d="M33.9247 12.4145C30.7606 7.42813 25.2587 4.125 18.9957 4.125H18.995C9.18232 4.125 1.22763 12.227 1.22763 22.2214V22.2221C1.22763 23.4723 1.35202 24.6928 1.58904 25.8715C16.7146 16.1595 28.8394 13.2559 33.9247 12.4145Z" fill="#40C1AC"/>
<path d="M34.2888 13.0044C19.3245 19.5958 9.51347 30.9623 6.38388 34.9598C9.60275 38.2627 14.063 40.3093 18.9935 40.3093H18.9941C28.8066 40.3093 36.7617 32.2071 36.7617 22.2129V22.2122C36.7617 18.8491 35.8578 15.7024 34.2888 13.0044Z" fill="#40C1AC"/>
</svg>
