<?xml version="1.0" encoding="utf-8"?>
<!-- Generator: Adobe Illustrator 18.1.1, SVG Export Plug-In . SVG Version: 6.00 Build 0)  -->
<svg version="1.1" id="Layer_1" xmlns="http://www.w3.org/2000/svg" xmlns:xlink="http://www.w3.org/1999/xlink" x="0px" y="0px"
	 viewBox="0 0 612 173.8" enable-background="new 0 0 612 173.8" xml:space="preserve">
<g>
	<path fill="#CB0000" d="M121.7,47.4L103.6,72c0,0,93.9,0,98.7,0c5,0,4.9,1.9,2.5,5.2c-2.5,3.4-6.6,9.2-9.1,12.6
		c-1.3,1.7-3.6,4.9,4.1,4.9c8.1,0,40.4,0,40.4,0s6.5-8.9,12-16.3c7.4-10.1,0.6-31-25.9-31C202.4,47.4,121.7,47.4,121.7,47.4
		L121.7,47.4z"/>
	<path fill="#CB0000" d="M96.3,127.5l36.4-49.4c0,0,40.3,0,45.1,0c5,0,4.9,1.9,2.5,5.2c-2.5,3.4-6.7,9.1-9.2,12.5
		c-1.3,1.7-3.6,4.9,4.1,4.9c8.1,0,60.5,0,60.5,0c-5,6.9-21.3,26.8-50.6,26.8C161.2,127.5,96.3,127.5,96.3,127.5L96.3,127.5z"/>
	<path fill="#CB0000" d="M304.6,100.7l-19.7,26.8h-52c0,0,19.7-26.8,19.7-26.8L304.6,100.7L304.6,100.7z"/>
	<polygon fill="#CB0000" points="384.3,94.7 257,94.7 291.9,47.4 343.9,47.4 323.9,74.5 347.2,74.5 367.1,47.4 419.1,47.4 
		384.3,94.7 	"/>
	<path fill="#CB0000" d="M379.9,100.7l-19.7,26.8h-52c0,0,19.7-26.8,19.7-26.8H379.9L379.9,100.7z"/>
	<polygon fill="#CB0000" points="22,111.3 98.7,111.3 94.5,117 22,117 22,111.3 	"/>
	<polygon fill="#CB0000" points="22,100.7 106.5,100.7 102.3,106.4 22,106.4 22,100.7 	"/>
	<polygon fill="#CB0000" points="22,121.9 90.9,121.9 86.7,127.5 22,127.5 22,121.9 	"/>
	<polygon fill="#CB0000" points="588.9,117 512.6,117 516.7,111.3 588.9,111.3 588.9,117 	"/>
	<polygon fill="#CB0000" points="588.9,127.5 504.8,127.6 509,121.9 588.9,121.9 588.9,127.5 	"/>
	<polygon fill="#CB0000" points="524.5,100.7 588.9,100.7 588.9,106.4 520.3,106.4 524.5,100.7 	"/>
	<path fill="#CB0000" d="M491.2,47.4l-34.8,47.3h-55.1c0,0,34.8-47.3,34.8-47.3H491.2L491.2,47.4z"/>
	<path fill="#CB0000" d="M396.8,100.7c0,0-3.8,5.2-5.7,7.7c-6.5,8.8-0.8,19.1,20.6,19.1c24.6,0,83.6,0,83.6,0l19.7-26.8H396.8
		L396.8,100.7z"/>
</g>
</svg>
