<svg width="32" height="32" viewBox="0 0 32 32" fill="none" xmlns="http://www.w3.org/2000/svg">
<rect width="32" height="32" rx="5" fill="#B30526"/>
<path d="M8.5 11.5C8.5 11.1022 8.65804 10.7206 8.93934 10.4393C9.22064 10.158 9.60218 10 10 10H22C22.3978 10 22.7794 10.158 23.0607 10.4393C23.342 10.7206 23.5 11.1022 23.5 11.5V20.5C23.5 20.8978 23.342 21.2794 23.0607 21.5607C22.7794 21.842 22.3978 22 22 22H10C9.60218 22 9.22064 21.842 8.93934 21.5607C8.65804 21.2794 8.5 20.8978 8.5 20.5V11.5Z" stroke="white" stroke-width="2" stroke-linecap="round" stroke-linejoin="round"/>
<path d="M8.5 13L14.1258 17.5008C14.6577 17.9264 15.3187 18.1583 16 18.1583C16.6813 18.1583 17.3423 17.9264 17.8742 17.5008L23.5 13" stroke="white" stroke-width="2" stroke-linecap="round" stroke-linejoin="round"/>
</svg>
