<svg width="32" height="32" viewBox="0 0 32 32" fill="none" xmlns="http://www.w3.org/2000/svg">
<rect width="32" height="32" rx="5" fill="#B30526"/>
<path d="M14.9155 11.6798L12.3782 8.75103C12.0857 8.41353 11.5495 8.41503 11.2097 8.75553L9.12325 10.8458C8.50225 11.4675 8.3245 12.3908 8.68375 13.131C10.83 17.5748 14.4138 21.1636 18.8545 23.316C19.594 23.6753 20.5165 23.4975 21.1375 22.8758L23.2435 20.766C23.5847 20.4248 23.5855 19.8855 23.245 19.593L20.305 17.0693C19.9975 16.8053 19.5197 16.8398 19.2115 17.1488L18.1885 18.1733C18.1361 18.2282 18.0672 18.2643 17.9923 18.2763C17.9173 18.2882 17.8406 18.2752 17.7737 18.2393C16.1016 17.2763 14.7145 15.8874 13.7537 14.214C13.7178 14.1471 13.7047 14.0702 13.7167 13.9951C13.7286 13.9201 13.7648 13.851 13.8197 13.7985L14.8397 12.7778C15.1487 12.4673 15.1825 11.9873 14.9155 11.679V11.6798Z" stroke="white" stroke-width="2" stroke-linecap="round" stroke-linejoin="round"/>
</svg>
